<svg width="27" height="27" viewBox="0 0 27 27" fill="none" xmlns="http://www.w3.org/2000/svg">
<path fill-rule="evenodd" clip-rule="evenodd" d="M0 9.89532C0 4.43896 6.05592 0 13.4999 0C20.9438 0 27 4.43896 27 9.89532C27 12.4018 24.8451 15.9433 20.5956 20.4214C17.4891 23.6948 14.434 26.2279 14.3056 26.3342L13.4999 27L12.6944 26.3342C12.5657 26.2279 9.51063 23.6948 6.4044 20.4214C2.15466 15.9433 0 12.4018 0 9.89532ZM7 10.4999C7 6.91579 9.91579 4 13.4999 4C17.0842 4 20 6.91579 20 10.4999C20 14.084 17.0842 17 13.4999 17C9.91579 17 7 14.084 7 10.4999Z" fill="#F34213"/>
</svg>
