<svg width="85" height="28" viewBox="0 0 85 28" fill="none" xmlns="http://www.w3.org/2000/svg">
<path d="M84 17C84 17.9639 83.2262 19.151 81.1382 20.4287C79.1077 21.6713 76.1029 22.8262 72.3015 23.8101C64.7136 25.774 54.1768 27 42.5 27C30.8232 27 20.2864 25.774 12.6985 23.8101C8.89711 22.8262 5.89234 21.6713 3.86182 20.4287C1.77378 19.151 1 17.9639 1 17C1 16.0361 1.77378 14.849 3.86182 13.5713C5.89234 12.3287 8.89711 11.1738 12.6985 10.1899C20.2864 8.22601 30.8232 7 42.5 7C54.1768 7 64.7136 8.22601 72.3015 10.1899C76.1029 11.1738 79.1077 12.3287 81.1382 13.5713C83.2262 14.849 84 16.0361 84 17Z" stroke="white" stroke-width="2"/>
<path d="M6.11719 11.8203C6.11719 11.5703 6.13281 11.2969 6.16406 11C6.19531 10.6875 6.26562 10.4062 6.375 10.1562C6.48438 9.90625 6.64062 9.69531 6.84375 9.52344C7.0625 9.35156 7.35156 9.26562 7.71094 9.26562C7.71094 9.46875 7.6875 9.65625 7.64062 9.82812C7.60938 10 7.5625 10.1719 7.5 10.3438C7.45312 10.5156 7.40625 10.7031 7.35938 10.9062C7.32812 11.0938 7.3125 11.3047 7.3125 11.5391C7.3125 12.1328 7.39062 12.6875 7.54688 13.2031C7.70312 13.7188 7.9375 14.1719 8.25 14.5625C8.57812 14.9375 8.97656 15.2344 9.44531 15.4531C9.92969 15.6719 10.5 15.7812 11.1562 15.7812C11.4375 15.7812 11.7812 15.7188 12.1875 15.5938C12.5938 15.4688 13 15.3203 13.4062 15.1484C13.8125 14.9766 14.1875 14.8047 14.5312 14.6328C14.875 14.4609 15.1172 14.3359 15.2578 14.2578C15.6016 14.0703 15.875 13.8125 16.0781 13.4844C16.2812 13.1406 16.4375 12.7734 16.5469 12.3828C16.6562 11.9766 16.7266 11.5703 16.7578 11.1641C16.7891 10.7422 16.8047 10.3672 16.8047 10.0391C16.8047 9.50781 16.75 8.99219 16.6406 8.49219C16.5469 7.97656 16.4375 7.46875 16.3125 6.96875C16.2031 6.46875 16.0938 5.96875 15.9844 5.46875C15.8906 4.96875 15.8438 4.46094 15.8438 3.94531C16.0156 3.46094 16.2812 3.02344 16.6406 2.63281C17.0156 2.22656 17.4375 1.88281 17.9062 1.60156C18.3906 1.30469 18.9062 1.07031 19.4531 0.898438C20 0.726562 20.5312 0.625 21.0469 0.59375C21.4688 0.703125 21.7891 0.84375 22.0078 1.01562C22.2266 1.17187 22.375 1.34375 22.4531 1.53125C22.5469 1.71875 22.5703 1.89844 22.5234 2.07031C22.4766 2.24219 22.3984 2.39844 22.2891 2.53906C22.1172 2.16406 21.8906 1.91406 21.6094 1.78906C21.3438 1.66406 21.0391 1.625 20.6953 1.67188C20.3672 1.71875 20.0312 1.83594 19.6875 2.02344C19.3438 2.21094 19.0156 2.42188 18.7031 2.65625C18.3906 2.89062 18.1172 3.14062 17.8828 3.40625C17.6484 3.65625 17.4766 3.875 17.3672 4.0625C17.3672 4.53125 17.4141 4.99219 17.5078 5.44531C17.6172 5.88281 17.7266 6.32812 17.8359 6.78125C17.9609 7.21875 18.0703 7.66406 18.1641 8.11719C18.2734 8.55469 18.3281 9.00781 18.3281 9.47656C18.3281 10.6016 18.1484 11.6328 17.7891 12.5703C17.4453 13.4922 16.9375 14.2891 16.2656 14.9609C15.6094 15.6172 14.8047 16.125 13.8516 16.4844C12.9141 16.8438 11.8594 17.0234 10.6875 17.0234C9.95312 17.0234 9.29688 16.875 8.71875 16.5781C8.15625 16.2812 7.67969 15.8906 7.28906 15.4062C6.91406 14.9062 6.625 14.3438 6.42188 13.7188C6.21875 13.0938 6.11719 12.4609 6.11719 11.8203ZM20.2266 15.8281C20.2266 15.5938 20.2969 15.2656 20.4375 14.8438C20.5781 14.4062 20.7578 13.9375 20.9766 13.4375C21.2109 12.9375 21.4688 12.4297 21.75 11.9141C22.0469 11.3984 22.3438 10.9297 22.6406 10.5078C22.9375 10.0859 23.2188 9.74219 23.4844 9.47656C23.75 9.21094 23.9844 9.07812 24.1875 9.07812C24.625 9.07812 24.8438 9.28906 24.8438 9.71094C24.8438 9.89844 24.8047 10.0547 24.7266 10.1797C24.6641 10.3047 24.5859 10.4219 24.4922 10.5312C24.3984 10.6406 24.2969 10.75 24.1875 10.8594C24.0781 10.9531 23.9844 11.0703 23.9062 11.2109C23.7656 11.4453 23.5938 11.7656 23.3906 12.1719C23.1875 12.5781 22.9844 12.9766 22.7812 13.3672C22.5938 13.7422 22.4297 14.0781 22.2891 14.375C22.1484 14.6719 22.0781 14.8359 22.0781 14.8672V15.1719C22.6875 15.0625 23.2734 14.8047 23.8359 14.3984C24.3984 13.9766 24.9297 13.4844 25.4297 12.9219C25.9453 12.3594 26.4297 11.7734 26.8828 11.1641C27.3516 10.5391 27.7891 9.96875 28.1953 9.45312C28.6016 8.92188 28.9844 8.48438 29.3438 8.14062C29.7031 7.79688 30.0391 7.625 30.3516 7.625C30.3516 8.20312 30.2344 8.72656 30 9.19531C29.7656 9.66406 29.5078 10.125 29.2266 10.5781C28.9609 11.0312 28.7109 11.5 28.4766 11.9844C28.2422 12.4531 28.125 12.9844 28.125 13.5781C28.125 13.8281 28.2734 14.0547 28.5703 14.2578C28.8828 14.4453 29.2344 14.6094 29.625 14.75C30.0312 14.875 30.4219 14.9766 30.7969 15.0547C31.1719 15.1328 31.4297 15.1797 31.5703 15.1953V15.8047C31.2109 15.8203 30.7656 15.8281 30.2344 15.8281C29.7031 15.8125 29.1719 15.75 28.6406 15.6406C28.1094 15.5312 27.625 15.3516 27.1875 15.1016C26.7656 14.8359 26.4844 14.4531 26.3438 13.9531C25.9375 14.2188 25.5469 14.5312 25.1719 14.8906C24.7969 15.25 24.4062 15.5859 24 15.8984C23.6094 16.2109 23.1953 16.4766 22.7578 16.6953C22.3203 16.9141 21.8438 17.0234 21.3281 17.0234C21.0156 17.0234 20.75 16.8906 20.5312 16.625C20.3281 16.3594 20.2266 16.0938 20.2266 15.8281ZM28.5703 23.5625C28.5703 23.5469 28.5781 23.5156 28.5938 23.4688C28.5938 23.4219 28.5938 23.3906 28.5938 23.375C28.6094 23.3281 28.6328 23.2578 28.6641 23.1641C28.6953 23.0859 28.7266 23 28.7578 22.9062C28.7891 22.8125 28.8203 22.7188 28.8516 22.625C28.8828 22.5469 28.9062 22.4922 28.9219 22.4609C29.0156 22.2422 29.1719 21.8906 29.3906 21.4062C29.6094 20.9375 29.8594 20.3984 30.1406 19.7891C30.4219 19.1953 30.7188 18.5703 31.0312 17.9141C31.3281 17.2578 31.6172 16.6328 31.8984 16.0391C32.1797 15.4297 32.4297 14.8906 32.6484 14.4219C32.8828 13.9375 33.0547 13.5781 33.1641 13.3438C33.3672 13.0156 33.6484 12.6328 34.0078 12.1953C34.3828 11.7578 34.7969 11.3125 35.25 10.8594C35.7031 10.4062 36.1875 9.96875 36.7031 9.54688C37.2344 9.10938 37.75 8.72656 38.25 8.39844C38.7656 8.05469 39.2656 7.78125 39.75 7.57812C40.2344 7.35938 40.6641 7.25 41.0391 7.25C41.6016 7.25 42 7.35156 42.2344 7.55469C42.4688 7.75781 42.5859 8.17188 42.5859 8.79688C42.5859 9.46875 42.4531 10.1406 42.1875 10.8125C41.9375 11.4688 41.5938 12.0938 41.1562 12.6875C40.7188 13.2812 40.2031 13.8203 39.6094 14.3047C39.0312 14.7891 38.4141 15.1875 37.7578 15.5C37.1172 15.8125 36.4531 16.0312 35.7656 16.1562C35.0781 16.2656 34.4141 16.2422 33.7734 16.0859L33.4688 16.3906L30.4219 23.9844C30.375 24.125 30.2422 24.2109 30.0234 24.2422C29.8047 24.2891 29.625 24.3125 29.4844 24.3125C29.2812 24.3125 29.0781 24.2422 28.875 24.1016C28.6719 23.9766 28.5703 23.7969 28.5703 23.5625ZM39.5391 12.1484C40.2734 11.3672 40.75 10.75 40.9688 10.2969C41.1875 9.82812 41.2344 9.5 41.1094 9.3125C40.9844 9.125 40.7344 9.05469 40.3594 9.10156C39.9844 9.14844 39.5625 9.28125 39.0938 9.5C38.625 9.71875 38.1484 10.0078 37.6641 10.3672C37.1953 10.7266 36.8047 11.1172 36.4922 11.5391C36.3516 11.6953 36.1797 11.9062 35.9766 12.1719C35.7734 12.4219 35.5703 12.6797 35.3672 12.9453C35.1797 13.1953 35.0156 13.4219 34.875 13.625C34.7344 13.8281 34.6641 13.9453 34.6641 13.9766V14.4688C35.7422 14.4688 36.6641 14.3125 37.4297 14C38.1953 13.6719 38.8984 13.0547 39.5391 12.1484Z" fill="#F34213"/>
<path d="M47.7646 15.4136L46.8599 15.3057C46.4061 15.3112 46.0353 15.5409 45.7476 15.9946C45.6479 16.1606 45.5981 16.4124 45.5981 16.75V19.7051C45.5981 20.1146 45.778 20.3885 46.1377 20.5269C46.1432 20.5324 46.2428 20.5628 46.4365 20.6182C46.6302 20.668 46.7354 20.6956 46.752 20.7012V21H43.606V20.7012C43.6226 20.6901 43.6779 20.6735 43.772 20.6514C44.1704 20.5573 44.425 20.4106 44.5356 20.2114C44.591 20.1007 44.6214 19.979 44.627 19.8462V15.7622C44.627 15.4966 44.4858 15.3361 44.2036 15.2808C44.1206 15.2642 43.9408 15.2503 43.6641 15.2393L43.6226 14.9487L45.6646 14.1685L45.6812 15.48L45.9717 15.1729C46.597 14.5918 47.2085 14.3013 47.8062 14.3013C48.1603 14.3013 48.3402 14.4728 48.3457 14.8159C48.3457 15.0926 48.2323 15.278 48.0054 15.3721C47.9279 15.3997 47.8477 15.4136 47.7646 15.4136ZM51.6494 14.1436C52.7119 14.1436 53.3787 14.5586 53.6499 15.3887C53.7716 15.765 53.8049 16.133 53.7495 16.4927H49.7734C49.7015 16.8911 49.6655 17.2619 49.6655 17.605C49.6655 18.7726 50.0142 19.5695 50.7114 19.9956C51.0822 20.2225 51.5277 20.3359 52.0479 20.3359C52.5902 20.3359 53.1353 20.1367 53.6831 19.7383L53.9238 19.9873L53.6914 20.2612C53.0605 20.9198 52.3135 21.2518 51.4502 21.2573C50.9355 21.2573 50.4596 21.1024 50.0225 20.7925C49.1426 20.1672 48.7026 19.2209 48.7026 17.9536C48.7026 16.6144 49.0762 15.599 49.8232 14.9072C50.3877 14.4147 50.9964 14.1602 51.6494 14.1436ZM49.8564 15.9531H52.6787C52.6787 15.516 52.5791 15.1922 52.3799 14.9819C52.1807 14.7661 51.9261 14.6582 51.6162 14.6582C51.1348 14.6582 50.7419 14.8021 50.4375 15.0898C50.1331 15.3721 49.9395 15.6598 49.8564 15.9531ZM58.9624 14.6416L58.9209 15.9282H58.4893C58.4561 15.3582 58.2845 14.9792 57.9746 14.791C57.7865 14.6803 57.5513 14.625 57.269 14.625C56.9647 14.625 56.7323 14.7218 56.5718 14.9155C56.4168 15.1037 56.3394 15.3472 56.3394 15.646C56.3449 15.9946 56.5469 16.335 56.9453 16.667L58.041 17.6216C58.4948 18.0256 58.7881 18.3631 58.9209 18.6343C59.0592 18.8999 59.1284 19.1655 59.1284 19.4312C59.1284 20.0731 58.8628 20.5656 58.3315 20.9087C57.9497 21.1522 57.4683 21.2712 56.8872 21.2656C56.3117 21.2656 55.7417 21.119 55.1772 20.8257L55.0776 19.5142H55.4844C55.5951 19.9901 55.7417 20.3221 55.9243 20.5103C56.1069 20.6929 56.4168 20.7842 56.854 20.7842C57.2801 20.7842 57.6094 20.6624 57.8418 20.4189C58.0742 20.1755 58.1877 19.9209 58.1821 19.6553C58.1821 19.2845 57.9331 18.8805 57.4351 18.4434L56.3394 17.5054C55.6753 16.9409 55.3405 16.4014 55.335 15.8867C55.335 15.278 55.5397 14.8408 55.9492 14.5752C56.3643 14.304 56.8402 14.1685 57.377 14.1685C57.9359 14.1685 58.4644 14.3262 58.9624 14.6416ZM63.752 14.9653H62.0254V18.269C62.0254 18.745 62.0309 19.1932 62.042 19.6138C62.0531 20.0288 62.1167 20.3138 62.2329 20.4688C62.3547 20.6182 62.529 20.6929 62.7559 20.6929C63.1598 20.6929 63.5915 20.5822 64.0508 20.3608V20.8091C63.4642 21.119 62.9634 21.2739 62.5483 21.2739C62.1554 21.2739 61.8511 21.2075 61.6353 21.0747C61.425 20.9474 61.27 20.7814 61.1704 20.5767C61.0763 20.3664 61.021 20.1312 61.0044 19.8711C60.9878 19.611 60.9795 19.3509 60.9795 19.0908V15.5298C60.9795 15.408 60.9767 15.314 60.9712 15.2476C60.9712 15.1812 60.9601 15.123 60.938 15.0732C60.9214 15.0234 60.8771 14.993 60.8052 14.9819C60.7332 14.9709 60.6253 14.9653 60.4814 14.9653H60.0166V14.5752C60.5479 14.3483 60.9131 14.1297 61.1123 13.9194C61.3115 13.7091 61.5246 13.3439 61.7515 12.8237H62.0254V14.3428H63.752V14.9653Z" fill="#303635"/>
</svg>
