<svg width="65" height="65" viewBox="0 0 65 65" fill="none" xmlns="http://www.w3.org/2000/svg">
<circle cx="32.5" cy="32.5" r="32.5" fill="#22C59D"/>
<path d="M14 32C13.4477 32 13 32.4477 13 33C13 33.5523 13.4477 34 14 34V32ZM51.2071 33.7071C51.5976 33.3166 51.5976 32.6834 51.2071 32.2929L44.8431 25.9289C44.4526 25.5384 43.8195 25.5384 43.4289 25.9289C43.0384 26.3195 43.0384 26.9526 43.4289 27.3431L49.0858 33L43.4289 38.6569C43.0384 39.0474 43.0384 39.6805 43.4289 40.0711C43.8195 40.4616 44.4526 40.4616 44.8431 40.0711L51.2071 33.7071ZM14 34H50.5V32H14V34Z" fill="white"/>
</svg>
