<svg width="27" height="27" viewBox="0 0 27 27" fill="none" xmlns="http://www.w3.org/2000/svg">
<path d="M5.50179 17.9478C8.16486 21.1312 11.3706 23.6376 15.0296 25.4111C16.4226 26.0713 18.2857 26.8545 20.3613 26.9888C20.49 26.9944 20.6131 27 20.7417 27C22.1348 27 23.2538 26.5189 24.1657 25.5286C24.1713 25.523 24.1825 25.5118 24.1881 25.5006C24.5126 25.109 24.8818 24.7565 25.2678 24.3817C25.5308 24.1299 25.7993 23.867 26.0567 23.5984C27.2484 22.3564 27.2484 20.7787 26.0455 19.5758L22.6831 16.2134C22.1124 15.6204 21.4299 15.3071 20.7138 15.3071C19.9976 15.3071 19.3095 15.6204 18.7221 16.2078L16.7192 18.2107C16.5345 18.1044 16.3443 18.0093 16.1653 17.9198C15.9415 17.8079 15.7345 17.7016 15.5499 17.5841C13.726 16.426 12.07 14.9155 10.4867 12.9741C9.68662 11.9615 9.14953 11.1111 8.77469 10.2439C9.30059 9.76834 9.79292 9.27041 10.2685 8.78367C10.4363 8.61024 10.6097 8.4368 10.7832 8.26336C11.3874 7.65914 11.7119 6.9598 11.7119 6.24927C11.7119 5.53875 11.393 4.83941 10.7832 4.23518L9.11596 2.56797C8.92015 2.37215 8.73552 2.18193 8.5453 1.98612C8.17605 1.60568 7.79002 1.21405 7.40958 0.861583C6.83333 0.296519 6.15637 0 5.44025 0C4.72972 0 4.04717 0.296519 3.44854 0.867178L1.35612 2.95959C0.595243 3.72047 0.164452 4.6436 0.0749366 5.71218C-0.0313626 7.04932 0.214804 8.47037 0.852599 10.1879C1.83167 12.8454 3.30867 15.3127 5.50179 17.9478Z" fill="#F34213"/>
</svg>
