<svg width="65" height="65" viewBox="0 0 65 65" fill="none" xmlns="http://www.w3.org/2000/svg">
<circle opacity="0.45" r="32.5" transform="matrix(-1 0 0 1 32.5 32.5)" fill="#303635"/>
<path d="M51 32C51.5523 32 52 32.4477 52 33C52 33.5523 51.5523 34 51 34V32ZM13.7929 33.7071C13.4024 33.3166 13.4024 32.6834 13.7929 32.2929L20.1569 25.9289C20.5474 25.5384 21.1805 25.5384 21.5711 25.9289C21.9616 26.3195 21.9616 26.9526 21.5711 27.3431L15.9142 33L21.5711 38.6569C21.9616 39.0474 21.9616 39.6805 21.5711 40.0711C21.1805 40.4616 20.5474 40.4616 20.1569 40.0711L13.7929 33.7071ZM51 34H14.5V32H51V34Z" fill="white"/>
</svg>
